<svg xmlns="http://www.w3.org/2000/svg" xmlns:xlink="http://www.w3.org/1999/xlink" id="processonSvg1000" viewBox="304.0 86.0 469.0 544.0" width="469.0" height="544.0"><defs id="ProcessOnDefs1001"><marker id="ProcessOnMarker1031" markerUnits="userSpaceOnUse" orient="auto" markerWidth="16.23606797749979" markerHeight="10.550836550532098" viewBox="-1.0 -1.3763819204711736 16.23606797749979 10.550836550532098" refX="-1.0" refY="3.8990363547948754"><path id="ProcessOnPath1032" d="M12.0 3.8990363547948754L0.0 7.798072709589751V0.0Z" stroke="#323232" stroke-width="2.0" fill="#323232" transform="matrix(1.0,0.0,0.0,1.0,0.0,0.0)"/></marker><marker id="ProcessOnMarker1035" markerUnits="userSpaceOnUse" orient="auto" markerWidth="16.23606797749979" markerHeight="10.550836550532098" viewBox="-1.0 -1.3763819204711736 16.23606797749979 10.550836550532098" refX="-1.0" refY="3.8990363547948754"><path id="ProcessOnPath1036" d="M12.0 3.8990363547948754L0.0 7.798072709589751V0.0Z" stroke="#323232" stroke-width="2.0" fill="#323232" transform="matrix(1.0,0.0,0.0,1.0,0.0,0.0)"/></marker><marker id="ProcessOnMarker1047" markerUnits="userSpaceOnUse" orient="auto" markerWidth="16.23606797749979" markerHeight="10.550836550532098" viewBox="-1.0 -1.3763819204711736 16.23606797749979 10.550836550532098" refX="-1.0" refY="3.8990363547948754"><path id="ProcessOnPath1048" d="M12.0 3.8990363547948754L0.0 7.798072709589751V0.0Z" stroke="#323232" stroke-width="2.0" fill="#323232" transform="matrix(1.0,0.0,0.0,1.0,0.0,0.0)"/></marker></defs><g id="ProcessOnG1002"><path id="ProcessOnPath1003" d="M304.0 86.0H773.0V630.0H304.0V86.0Z" fill="none"/><g id="ProcessOnG1004"><g id="ProcessOnG1005" transform="matrix(1.0,0.0,0.0,1.0,464.0,522.0)" opacity="1.0"><path id="ProcessOnPath1006" d="M0.0 25.0L143.5 25.0Q147.5 25.0 147.5 29.0L147.5 84.0Q147.5 88.0 143.5 88.0L4.0 88.0Q0.0 88.0 0.0 84.0Z" stroke="#323232" stroke-width="2.0" stroke-dasharray="none" opacity="1.0" fill="#ffffff"/><path id="ProcessOnPath1007" d="M0.0 4.0Q0.0 0.0 4.0 0.0L99.25 0.0Q103.25 0.0 106.25 3.0L112.1 25.0L0.0 25.0Z" stroke="#323232" stroke-width="2.0" stroke-dasharray="none" opacity="1.0" fill="#ffffff"/><path id="ProcessOnPath1008" d="M0.0 0.0L103.25 0.0L112.1 25.0L147.5 25.0L147.5 88.0L0.0 88.0Z" stroke="none" stroke-width="0.0" stroke-dasharray="none" opacity="1.0" fill="none"/><g id="ProcessOnG1009" transform="matrix(1.0,0.0,0.0,1.0,10.0,4.375)"><text id="ProcessOnText1010" fill="#000000" font-size="13" x="0.0" y="13.325" font-family="微软雅黑" font-weight="bold" font-style="normal" text-decoration="none" family="微软雅黑" text-anchor="start" size="13">B1</text></g><g id="ProcessOnG1011" transform="matrix(1.0,0.0,0.0,1.0,10.0,48.375)"><text id="ProcessOnText1012" fill="#000000" font-size="13" x="0.0" y="13.325" font-family="微软雅黑" font-weight="bold" font-style="normal" text-decoration="none" family="微软雅黑" text-anchor="start" size="13"></text></g></g><g id="ProcessOnG1013" transform="matrix(1.0,0.0,0.0,1.0,324.0,247.0)" opacity="1.0"><path id="ProcessOnPath1014" d="M0.0 25.0L179.0 25.0Q183.0 25.0 183.0 29.0L183.0 134.0Q183.0 138.0 179.0 138.0L4.0 138.0Q0.0 138.0 0.0 134.0Z" stroke="#323232" stroke-width="2.0" stroke-dasharray="none" opacity="1.0" fill="#ffffff"/><path id="ProcessOnPath1015" d="M0.0 4.0Q0.0 0.0 4.0 0.0L124.1 0.0Q128.1 0.0 131.1 3.0L139.08 25.0L0.0 25.0Z" stroke="#323232" stroke-width="2.0" stroke-dasharray="none" opacity="1.0" fill="#ffffff"/><path id="ProcessOnPath1016" d="M0.0 0.0L128.1 0.0L139.08 25.0L183.0 25.0L183.0 138.0L0.0 138.0Z" stroke="none" stroke-width="0.0" stroke-dasharray="none" opacity="1.0" fill="none"/><g id="ProcessOnG1017" transform="matrix(1.0,0.0,0.0,1.0,10.0,4.375)"><text id="ProcessOnText1018" fill="#000000" font-size="13" x="0.0" y="13.325" font-family="微软雅黑" font-weight="bold" font-style="normal" text-decoration="none" family="微软雅黑" text-anchor="start" size="13">B3</text></g><g id="ProcessOnG1019" transform="matrix(1.0,0.0,0.0,1.0,10.0,73.375)"><text id="ProcessOnText1020" fill="#000000" font-size="13" x="0.0" y="13.325" font-family="微软雅黑" font-weight="bold" font-style="normal" text-decoration="none" family="微软雅黑" text-anchor="start" size="13"></text></g></g><g id="ProcessOnG1021" transform="matrix(1.0,0.0,0.0,1.0,567.0,255.5)" opacity="1.0"><path id="ProcessOnPath1022" d="M0.0 25.0L182.0 25.0Q186.0 25.0 186.0 29.0L186.0 126.0Q186.0 130.0 182.0 130.0L4.0 130.0Q0.0 130.0 0.0 126.0Z" stroke="#323232" stroke-width="2.0" stroke-dasharray="none" opacity="1.0" fill="#ff6666"/><path id="ProcessOnPath1023" d="M0.0 4.0Q0.0 0.0 4.0 0.0L126.19999999999999 0.0Q130.2 0.0 133.2 3.0L141.36 25.0L0.0 25.0Z" stroke="#323232" stroke-width="2.0" stroke-dasharray="none" opacity="1.0" fill="#ff6666"/><path id="ProcessOnPath1024" d="M0.0 0.0L130.2 0.0L141.36 25.0L186.0 25.0L186.0 130.0L0.0 130.0Z" stroke="none" stroke-width="0.0" stroke-dasharray="none" opacity="1.0" fill="none"/><g id="ProcessOnG1025" transform="matrix(1.0,0.0,0.0,1.0,10.0,4.375)"><text id="ProcessOnText1026" fill="#000000" font-size="13" x="0.0" y="13.325" font-family="微软雅黑" font-weight="bold" font-style="normal" text-decoration="none" family="微软雅黑" text-anchor="start" size="13">B2</text></g><g id="ProcessOnG1027" transform="matrix(1.0,0.0,0.0,1.0,10.0,69.375)"><text id="ProcessOnText1028" fill="#000000" font-size="13" x="0.0" y="13.325" font-family="微软雅黑" font-weight="bold" font-style="normal" text-decoration="none" family="微软雅黑" text-anchor="start" size="13"></text></g></g><g id="ProcessOnG1029"><path id="ProcessOnPath1030" d="M537.75 522.0L537.75 453.5L415.5 453.5L415.5 400.2360679774998" stroke="#323232" stroke-width="2.0" stroke-dasharray="none" fill="none" marker-end="url(#ProcessOnMarker1031)"/></g><g id="ProcessOnG1033"><path id="ProcessOnPath1034" d="M537.75 522.0L537.75 453.75L660.0 453.75L660.0 400.7360679774998" stroke="#323232" stroke-width="2.0" stroke-dasharray="none" fill="none" marker-end="url(#ProcessOnMarker1035)"/></g><g id="ProcessOnG1037" transform="matrix(1.0,0.0,0.0,1.0,341.0,106.0)" opacity="1.0"><path id="ProcessOnPath1038" d="M0.0 25.0L145.0 25.0Q149.0 25.0 149.0 29.0L149.0 80.0Q149.0 84.0 145.0 84.0L4.0 84.0Q0.0 84.0 0.0 80.0Z" stroke="#323232" stroke-width="2.0" stroke-dasharray="none" opacity="1.0" fill="#ffffff"/><path id="ProcessOnPath1039" d="M0.0 4.0Q0.0 0.0 4.0 0.0L100.3 0.0Q104.3 0.0 107.3 3.0L113.24 25.0L0.0 25.0Z" stroke="#323232" stroke-width="2.0" stroke-dasharray="none" opacity="1.0" fill="#ffffff"/><path id="ProcessOnPath1040" d="M0.0 0.0L104.3 0.0L113.24 25.0L149.0 25.0L149.0 84.0L0.0 84.0Z" stroke="none" stroke-width="0.0" stroke-dasharray="none" opacity="1.0" fill="none"/><g id="ProcessOnG1041" transform="matrix(1.0,0.0,0.0,1.0,10.0,4.375)"><text id="ProcessOnText1042" fill="#000000" font-size="13" x="0.0" y="13.325" font-family="微软雅黑" font-weight="bold" font-style="normal" text-decoration="none" family="微软雅黑" text-anchor="start" size="13">B4</text></g><g id="ProcessOnG1043" transform="matrix(1.0,0.0,0.0,1.0,10.0,46.375)"><text id="ProcessOnText1044" fill="#000000" font-size="13" x="0.0" y="13.325" font-family="微软雅黑" font-weight="bold" font-style="normal" text-decoration="none" family="微软雅黑" text-anchor="start" size="13"></text></g></g><g id="ProcessOnG1045"><path id="ProcessOnPath1046" d="M415.5 247.0L415.5 218.5L415.5 218.5L415.5 205.2360679774998" stroke="#323232" stroke-width="2.0" stroke-dasharray="none" fill="none" marker-end="url(#ProcessOnMarker1047)"/></g><g id="ProcessOnG1049" transform="matrix(1.0,0.0,0.0,1.0,611.5,299.0)" opacity="1.0"><path id="ProcessOnPath1050" d="M0.0 25.0L93.0 25.0Q97.0 25.0 97.0 29.0L97.0 65.0Q97.0 69.0 93.0 69.0L4.0 69.0Q0.0 69.0 0.0 65.0Z" stroke="#323232" stroke-width="2.0" stroke-dasharray="none" opacity="1.0" fill="#ffffff"/><path id="ProcessOnPath1051" d="M0.0 4.0Q0.0 0.0 4.0 0.0L63.89999999999999 0.0Q67.89999999999999 0.0 70.89999999999999 3.0L73.72 25.0L0.0 25.0Z" stroke="#323232" stroke-width="2.0" stroke-dasharray="none" opacity="1.0" fill="#ffffff"/><path id="ProcessOnPath1052" d="M0.0 0.0L67.89999999999999 0.0L73.72 25.0L97.0 25.0L97.0 69.0L0.0 69.0Z" stroke="none" stroke-width="0.0" stroke-dasharray="none" opacity="1.0" fill="none"/><g id="ProcessOnG1053" transform="matrix(1.0,0.0,0.0,1.0,10.0,4.375)"><text id="ProcessOnText1054" fill="#000000" font-size="13" x="27.949999999999996" y="13.325" font-family="微软雅黑" font-weight="bold" font-style="normal" text-decoration="none" family="微软雅黑" text-anchor="middle" size="13">T1</text></g><g id="ProcessOnG1055" transform="matrix(1.0,0.0,0.0,1.0,10.0,38.875)"><text id="ProcessOnText1056" fill="#000000" font-size="13" x="37.5" y="13.325" font-family="微软雅黑" font-weight="bold" font-style="normal" text-decoration="none" family="微软雅黑" text-anchor="middle" size="13">A -&gt; B</text></g></g><g id="ProcessOnG1057" transform="matrix(1.0,0.0,0.0,1.0,367.0,294.0)" opacity="1.0"><path id="ProcessOnPath1058" d="M0.0 25.0L93.0 25.0Q97.0 25.0 97.0 29.0L97.0 65.0Q97.0 69.0 93.0 69.0L4.0 69.0Q0.0 69.0 0.0 65.0Z" stroke="#323232" stroke-width="2.0" stroke-dasharray="none" opacity="1.0" fill="#ffffff"/><path id="ProcessOnPath1059" d="M0.0 4.0Q0.0 0.0 4.0 0.0L63.89999999999999 0.0Q67.89999999999999 0.0 70.89999999999999 3.0L73.72 25.0L0.0 25.0Z" stroke="#323232" stroke-width="2.0" stroke-dasharray="none" opacity="1.0" fill="#ffffff"/><path id="ProcessOnPath1060" d="M0.0 0.0L67.89999999999999 0.0L73.72 25.0L97.0 25.0L97.0 69.0L0.0 69.0Z" stroke="none" stroke-width="0.0" stroke-dasharray="none" opacity="1.0" fill="none"/><g id="ProcessOnG1061" transform="matrix(1.0,0.0,0.0,1.0,10.0,4.375)"><text id="ProcessOnText1062" fill="#000000" font-size="13" x="27.949999999999996" y="13.325" font-family="微软雅黑" font-weight="bold" font-style="normal" text-decoration="none" family="微软雅黑" text-anchor="middle" size="13">T2</text></g><g id="ProcessOnG1063" transform="matrix(1.0,0.0,0.0,1.0,10.0,38.875)"><text id="ProcessOnText1064" fill="#000000" font-size="13" x="37.5" y="13.325" font-family="微软雅黑" font-weight="bold" font-style="normal" text-decoration="none" family="微软雅黑" text-anchor="middle" size="13">A -&gt; A</text></g></g></g></g></svg>