<svg xmlns="http://www.w3.org/2000/svg" xmlns:xlink="http://www.w3.org/1999/xlink" id="processonSvg1000" viewBox="316.0 48.0 680.0 515.0" width="680.0" height="515.0"><defs id="ProcessOnDefs1001"><marker id="ProcessOnMarker1077" markerUnits="userSpaceOnUse" orient="auto" markerWidth="16.23606797749979" markerHeight="10.550836550532098" viewBox="-1.0 -1.3763819204711736 16.23606797749979 10.550836550532098" refX="-1.0" refY="3.8990363547948754"><path id="ProcessOnPath1078" d="M12.0 3.8990363547948754L0.0 7.798072709589751V0.0Z" stroke="#323232" stroke-width="2.0" fill="#323232" transform="matrix(1.0,0.0,0.0,1.0,0.0,0.0)"/></marker></defs><g id="ProcessOnG1002"><path id="ProcessOnPath1003" d="M316.0 48.0H996.0V563.0H316.0V48.0Z" fill="none"/><g id="ProcessOnG1004"><g id="ProcessOnG1005" transform="matrix(1.0,0.0,0.0,1.0,375.0,68.0)" opacity="1.0"><path id="ProcessOnPath1006" d="M0.0 25.0L597.0 25.0Q601.0 25.0 601.0 29.0L601.0 215.0Q601.0 219.0 597.0 219.0L4.0 219.0Q0.0 219.0 0.0 215.0Z" stroke="#323232" stroke-width="2.0" stroke-dasharray="none" opacity="1.0" fill="#ffffff"/><path id="ProcessOnPath1007" d="M0.0 4.0Q0.0 0.0 4.0 0.0L416.7 0.0Q420.7 0.0 423.7 3.0L456.76 25.0L0.0 25.0Z" stroke="#323232" stroke-width="2.0" stroke-dasharray="none" opacity="1.0" fill="#ffffff"/><path id="ProcessOnPath1008" d="M0.0 0.0L420.7 0.0L456.76 25.0L601.0 25.0L601.0 219.0L0.0 219.0Z" stroke="none" stroke-width="0.0" stroke-dasharray="none" opacity="1.0" fill="none"/><g id="ProcessOnG1009" transform="matrix(1.0,0.0,0.0,1.0,10.0,4.375)"><text id="ProcessOnText1010" fill="#000000" font-size="13" x="0.0" y="13.325" font-family="微软雅黑" font-weight="bold" font-style="normal" text-decoration="none" family="微软雅黑" text-anchor="start" size="13">T1</text></g><g id="ProcessOnG1011" transform="matrix(1.0,0.0,0.0,1.0,10.0,113.875)"><text id="ProcessOnText1012" fill="#000000" font-size="13" x="0.0" y="13.325" font-family="微软雅黑" font-weight="bold" font-style="normal" text-decoration="none" family="微软雅黑" text-anchor="start" size="13"></text></g></g><g id="ProcessOnG1013" transform="matrix(1.0,0.0,0.0,1.0,403.0,103.0)" opacity="1.0"><path id="ProcessOnPath1014" d="M0.0 25.0L143.0 25.0Q147.0 25.0 147.0 29.0L147.0 75.0Q147.0 79.0 143.0 79.0L4.0 79.0Q0.0 79.0 0.0 75.0Z" stroke="#323232" stroke-width="2.0" stroke-dasharray="none" opacity="1.0" fill="#ffffff"/><path id="ProcessOnPath1015" d="M0.0 4.0Q0.0 0.0 4.0 0.0L98.89999999999999 0.0Q102.89999999999999 0.0 105.89999999999999 3.0L111.72 25.0L0.0 25.0Z" stroke="#323232" stroke-width="2.0" stroke-dasharray="none" opacity="1.0" fill="#ffffff"/><path id="ProcessOnPath1016" d="M0.0 0.0L102.89999999999999 0.0L111.72 25.0L147.0 25.0L147.0 79.0L0.0 79.0Z" stroke="none" stroke-width="0.0" stroke-dasharray="none" opacity="1.0" fill="none"/><g id="ProcessOnG1017" transform="matrix(1.0,0.0,0.0,1.0,10.0,4.375)"><text id="ProcessOnText1018" fill="#000000" font-size="13" x="0.0" y="13.325" font-family="微软雅黑" font-weight="bold" font-style="normal" text-decoration="none" family="微软雅黑" text-anchor="start" size="13">Input1</text></g><g id="ProcessOnG1019" transform="matrix(1.0,0.0,0.0,1.0,10.0,35.75)"><text id="ProcessOnText1020" fill="#000000" font-size="13" x="0.0" y="13.325" font-family="微软雅黑" font-weight="bold" font-style="normal" text-decoration="none" family="微软雅黑" text-anchor="start" size="13">UTXO: T?:Output?</text><text id="ProcessOnText1021" fill="#000000" font-size="13" x="0.0" y="29.575" font-family="微软雅黑" font-weight="bold" font-style="normal" text-decoration="none" family="微软雅黑" text-anchor="start" size="13">解锁脚本：A的签名</text></g></g><g id="ProcessOnG1022" transform="matrix(1.0,0.0,0.0,1.0,403.0,196.0)" opacity="1.0"><path id="ProcessOnPath1023" d="M0.0 25.0L143.0 25.0Q147.0 25.0 147.0 29.0L147.0 75.0Q147.0 79.0 143.0 79.0L4.0 79.0Q0.0 79.0 0.0 75.0Z" stroke="#323232" stroke-width="2.0" stroke-dasharray="none" opacity="1.0" fill="#ffffff"/><path id="ProcessOnPath1024" d="M0.0 4.0Q0.0 0.0 4.0 0.0L98.89999999999999 0.0Q102.89999999999999 0.0 105.89999999999999 3.0L111.72 25.0L0.0 25.0Z" stroke="#323232" stroke-width="2.0" stroke-dasharray="none" opacity="1.0" fill="#ffffff"/><path id="ProcessOnPath1025" d="M0.0 0.0L102.89999999999999 0.0L111.72 25.0L147.0 25.0L147.0 79.0L0.0 79.0Z" stroke="none" stroke-width="0.0" stroke-dasharray="none" opacity="1.0" fill="none"/><g id="ProcessOnG1026" transform="matrix(1.0,0.0,0.0,1.0,10.0,4.375)"><text id="ProcessOnText1027" fill="#000000" font-size="13" x="0.0" y="13.325" font-family="微软雅黑" font-weight="bold" font-style="normal" text-decoration="none" family="微软雅黑" text-anchor="start" size="13">Input2</text></g><g id="ProcessOnG1028" transform="matrix(1.0,0.0,0.0,1.0,10.0,35.75)"><text id="ProcessOnText1029" fill="#000000" font-size="13" x="0.0" y="13.325" font-family="微软雅黑" font-weight="bold" font-style="normal" text-decoration="none" family="微软雅黑" text-anchor="start" size="13">UTXO: T?:Output?</text><text id="ProcessOnText1030" fill="#000000" font-size="13" x="0.0" y="29.575" font-family="微软雅黑" font-weight="bold" font-style="normal" text-decoration="none" family="微软雅黑" text-anchor="start" size="13">解锁脚本：A的签名</text></g></g><g id="ProcessOnG1031" transform="matrix(1.0,0.0,0.0,1.0,889.0,265.0)" opacity="1.0"><path id="ProcessOnPath1032" d="M0.0 0.0L74.0 0.0L74.0 20.0L0.0 20.0Z" stroke="none" stroke-width="0.0" stroke-dasharray="none" opacity="1.0" fill="none"/><g id="ProcessOnG1033" transform="matrix(1.0,0.0,0.0,1.0,0.0,1.875)"><text id="ProcessOnText1034" fill="#000000" font-size="13" x="36.0" y="13.325" font-family="微软雅黑" font-weight="normal" font-style="normal" text-decoration="none" family="微软雅黑" text-anchor="middle" size="13">A转账给B</text></g></g><g id="ProcessOnG1035" transform="matrix(1.0,0.0,0.0,1.0,775.0,161.0)" opacity="1.0"><path id="ProcessOnPath1036" d="M0.0 25.0L152.0 25.0Q156.0 25.0 156.0 29.0L156.0 64.0Q156.0 68.0 152.0 68.0L4.0 68.0Q0.0 68.0 0.0 64.0Z" stroke="#323232" stroke-width="2.0" stroke-dasharray="none" opacity="1.0" fill="#ffffff"/><path id="ProcessOnPath1037" d="M0.0 4.0Q0.0 0.0 4.0 0.0L105.19999999999999 0.0Q109.19999999999999 0.0 112.19999999999999 3.0L118.56 25.0L0.0 25.0Z" stroke="#323232" stroke-width="2.0" stroke-dasharray="none" opacity="1.0" fill="#ffffff"/><path id="ProcessOnPath1038" d="M0.0 0.0L109.19999999999999 0.0L118.56 25.0L156.0 25.0L156.0 68.0L0.0 68.0Z" stroke="none" stroke-width="0.0" stroke-dasharray="none" opacity="1.0" fill="none"/><g id="ProcessOnG1039" transform="matrix(1.0,0.0,0.0,1.0,10.0,4.375)"><text id="ProcessOnText1040" fill="#000000" font-size="13" x="0.0" y="13.325" font-family="微软雅黑" font-weight="bold" font-style="normal" text-decoration="none" family="微软雅黑" text-anchor="start" size="13">Output1</text></g><g id="ProcessOnG1041" transform="matrix(1.0,0.0,0.0,1.0,10.0,30.25)"><text id="ProcessOnText1042" fill="#000000" font-size="13" x="0.0" y="13.325" font-family="微软雅黑" font-weight="bold" font-style="normal" text-decoration="none" family="微软雅黑" text-anchor="start" size="13">金额：10</text><text id="ProcessOnText1043" fill="#000000" font-size="13" x="0.0" y="29.575" font-family="微软雅黑" font-weight="bold" font-style="normal" text-decoration="none" family="微软雅黑" text-anchor="start" size="13">锁定脚本：包含B的WA</text></g></g><g id="ProcessOnG1044" transform="matrix(1.0,0.0,0.0,1.0,375.0,324.0)" opacity="1.0"><path id="ProcessOnPath1045" d="M0.0 25.0L597.0 25.0Q601.0 25.0 601.0 29.0L601.0 215.0Q601.0 219.0 597.0 219.0L4.0 219.0Q0.0 219.0 0.0 215.0Z" stroke="#323232" stroke-width="2.0" stroke-dasharray="none" opacity="1.0" fill="#ffffff"/><path id="ProcessOnPath1046" d="M0.0 4.0Q0.0 0.0 4.0 0.0L416.7 0.0Q420.7 0.0 423.7 3.0L456.76 25.0L0.0 25.0Z" stroke="#323232" stroke-width="2.0" stroke-dasharray="none" opacity="1.0" fill="#ffffff"/><path id="ProcessOnPath1047" d="M0.0 0.0L420.7 0.0L456.76 25.0L601.0 25.0L601.0 219.0L0.0 219.0Z" stroke="none" stroke-width="0.0" stroke-dasharray="none" opacity="1.0" fill="none"/><g id="ProcessOnG1048" transform="matrix(1.0,0.0,0.0,1.0,10.0,4.375)"><text id="ProcessOnText1049" fill="#000000" font-size="13" x="0.0" y="13.325" font-family="微软雅黑" font-weight="bold" font-style="normal" text-decoration="none" family="微软雅黑" text-anchor="start" size="13">T2</text></g><g id="ProcessOnG1050" transform="matrix(1.0,0.0,0.0,1.0,10.0,113.875)"><text id="ProcessOnText1051" fill="#000000" font-size="13" x="0.0" y="13.325" font-family="微软雅黑" font-weight="bold" font-style="normal" text-decoration="none" family="微软雅黑" text-anchor="start" size="13"></text></g></g><g id="ProcessOnG1052" transform="matrix(1.0,0.0,0.0,1.0,403.0,404.5)" opacity="1.0"><path id="ProcessOnPath1053" d="M0.0 25.0L143.0 25.0Q147.0 25.0 147.0 29.0L147.0 75.0Q147.0 79.0 143.0 79.0L4.0 79.0Q0.0 79.0 0.0 75.0Z" stroke="#323232" stroke-width="2.0" stroke-dasharray="none" opacity="1.0" fill="#ffffff"/><path id="ProcessOnPath1054" d="M0.0 4.0Q0.0 0.0 4.0 0.0L98.89999999999999 0.0Q102.89999999999999 0.0 105.89999999999999 3.0L111.72 25.0L0.0 25.0Z" stroke="#323232" stroke-width="2.0" stroke-dasharray="none" opacity="1.0" fill="#ffffff"/><path id="ProcessOnPath1055" d="M0.0 0.0L102.89999999999999 0.0L111.72 25.0L147.0 25.0L147.0 79.0L0.0 79.0Z" stroke="none" stroke-width="0.0" stroke-dasharray="none" opacity="1.0" fill="none"/><g id="ProcessOnG1056" transform="matrix(1.0,0.0,0.0,1.0,10.0,4.375)"><text id="ProcessOnText1057" fill="#000000" font-size="13" x="0.0" y="13.325" font-family="微软雅黑" font-weight="bold" font-style="normal" text-decoration="none" family="微软雅黑" text-anchor="start" size="13">Input1</text></g><g id="ProcessOnG1058" transform="matrix(1.0,0.0,0.0,1.0,10.0,35.75)"><text id="ProcessOnText1059" fill="#000000" font-size="13" x="0.0" y="13.325" font-family="微软雅黑" font-weight="bold" font-style="normal" text-decoration="none" family="微软雅黑" text-anchor="start" size="13">UTXO: T1:Output1</text><text id="ProcessOnText1060" fill="#000000" font-size="13" x="0.0" y="29.575" font-family="微软雅黑" font-weight="bold" font-style="normal" text-decoration="none" family="微软雅黑" text-anchor="start" size="13">解锁脚本：B的签名</text></g></g><g id="ProcessOnG1061" transform="matrix(1.0,0.0,0.0,1.0,889.0,521.0)" opacity="1.0"><path id="ProcessOnPath1062" d="M0.0 0.0L74.0 0.0L74.0 20.0L0.0 20.0Z" stroke="none" stroke-width="0.0" stroke-dasharray="none" opacity="1.0" fill="none"/><g id="ProcessOnG1063" transform="matrix(1.0,0.0,0.0,1.0,0.0,1.875)"><text id="ProcessOnText1064" fill="#000000" font-size="13" x="36.0" y="13.325" font-family="微软雅黑" font-weight="normal" font-style="normal" text-decoration="none" family="微软雅黑" text-anchor="middle" size="13">B转账给C</text></g></g><g id="ProcessOnG1065" transform="matrix(1.0,0.0,0.0,1.0,775.0,363.0)" opacity="1.0"><path id="ProcessOnPath1066" d="M0.0 25.0L152.0 25.0Q156.0 25.0 156.0 29.0L156.0 64.0Q156.0 68.0 152.0 68.0L4.0 68.0Q0.0 68.0 0.0 64.0Z" stroke="#323232" stroke-width="2.0" stroke-dasharray="none" opacity="1.0" fill="#ffffff"/><path id="ProcessOnPath1067" d="M0.0 4.0Q0.0 0.0 4.0 0.0L105.19999999999999 0.0Q109.19999999999999 0.0 112.19999999999999 3.0L118.56 25.0L0.0 25.0Z" stroke="#323232" stroke-width="2.0" stroke-dasharray="none" opacity="1.0" fill="#ffffff"/><path id="ProcessOnPath1068" d="M0.0 0.0L109.19999999999999 0.0L118.56 25.0L156.0 25.0L156.0 68.0L0.0 68.0Z" stroke="none" stroke-width="0.0" stroke-dasharray="none" opacity="1.0" fill="none"/><g id="ProcessOnG1069" transform="matrix(1.0,0.0,0.0,1.0,10.0,4.375)"><text id="ProcessOnText1070" fill="#000000" font-size="13" x="0.0" y="13.325" font-family="微软雅黑" font-weight="bold" font-style="normal" text-decoration="none" family="微软雅黑" text-anchor="start" size="13">Output1</text></g><g id="ProcessOnG1071" transform="matrix(1.0,0.0,0.0,1.0,10.0,22.125)"><text id="ProcessOnText1072" fill="#000000" font-size="13" x="0.0" y="13.325" font-family="微软雅黑" font-weight="bold" font-style="normal" text-decoration="none" family="微软雅黑" text-anchor="start" size="13">金额：5</text><text id="ProcessOnText1073" fill="#000000" font-size="13" x="0.0" y="29.575" font-family="微软雅黑" font-weight="bold" font-style="normal" text-decoration="none" family="微软雅黑" text-anchor="start" size="13">锁定脚本：包含C的W</text><text id="ProcessOnText1074" fill="#000000" font-size="13" x="0.0" y="45.825" font-family="微软雅黑" font-weight="bold" font-style="normal" text-decoration="none" family="微软雅黑" text-anchor="start" size="13">A</text></g></g><g id="ProcessOnG1075"><path id="ProcessOnPath1076" d="M403.0 444.0L336.0 444.0L336.0 302.75L961.0 302.75L961.0 195.0L946.2360679774998 195.0" stroke="#323232" stroke-width="2.0" stroke-dasharray="none" fill="none" marker-end="url(#ProcessOnMarker1077)"/></g><g id="ProcessOnG1079" transform="matrix(1.0,0.0,0.0,1.0,775.0,450.0)" opacity="1.0"><path id="ProcessOnPath1080" d="M0.0 25.0L152.0 25.0Q156.0 25.0 156.0 29.0L156.0 64.0Q156.0 68.0 152.0 68.0L4.0 68.0Q0.0 68.0 0.0 64.0Z" stroke="#323232" stroke-width="2.0" stroke-dasharray="none" opacity="1.0" fill="#ffffff"/><path id="ProcessOnPath1081" d="M0.0 4.0Q0.0 0.0 4.0 0.0L105.19999999999999 0.0Q109.19999999999999 0.0 112.19999999999999 3.0L118.56 25.0L0.0 25.0Z" stroke="#323232" stroke-width="2.0" stroke-dasharray="none" opacity="1.0" fill="#ffffff"/><path id="ProcessOnPath1082" d="M0.0 0.0L109.19999999999999 0.0L118.56 25.0L156.0 25.0L156.0 68.0L0.0 68.0Z" stroke="none" stroke-width="0.0" stroke-dasharray="none" opacity="1.0" fill="none"/><g id="ProcessOnG1083" transform="matrix(1.0,0.0,0.0,1.0,10.0,4.375)"><text id="ProcessOnText1084" fill="#000000" font-size="13" x="0.0" y="13.325" font-family="微软雅黑" font-weight="bold" font-style="normal" text-decoration="none" family="微软雅黑" text-anchor="start" size="13">Output2</text></g><g id="ProcessOnG1085" transform="matrix(1.0,0.0,0.0,1.0,10.0,30.25)"><text id="ProcessOnText1086" fill="#000000" font-size="13" x="0.0" y="13.325" font-family="微软雅黑" font-weight="bold" font-style="normal" text-decoration="none" family="微软雅黑" text-anchor="start" size="13">金额：4.9</text><text id="ProcessOnText1087" fill="#000000" font-size="13" x="0.0" y="29.575" font-family="微软雅黑" font-weight="bold" font-style="normal" text-decoration="none" family="微软雅黑" text-anchor="start" size="13">锁定脚本：包含B的WA</text></g></g></g></g></svg>